<?xml version='1.0' encoding='UTF-8' standalone='no'?>
<svg width="23.9607mm" height="26.924mm" xmlns="http://www.w3.org/2000/svg" viewBox="0 0 283 318" xmlns:xlink="http://www.w3.org/1999/xlink" version="1.2" baseProfile="tiny" xmlns:cc="http://creativecommons.org/ns#">
 <defs/>
 <g stroke="black" stroke-linejoin="bevel" fill="none" stroke-linecap="square" stroke-width="1" fill-rule="evenodd">
  <g stroke="#000000" font-size="45.8333" font-weight="400" stroke-linejoin="bevel" fill="none" stroke-linecap="square" transform="matrix(1,0,0,1,0,0)" stroke-width="1" stroke-opacity="1" font-family="Ubuntu" font-style="normal"/>
  <g stroke="#000000" font-size="45.8333" font-weight="400" stroke-linejoin="bevel" fill="none" stroke-linecap="square" transform="matrix(1,0,0,1,0,0)" stroke-width="1" stroke-opacity="1" font-family="Ubuntu" font-style="normal"/>
  <g stroke="#000000" font-size="45.8333" font-weight="400" stroke-linejoin="bevel" fill="none" stroke-linecap="square" transform="matrix(11.7778,0,0,11.7778,0,0)" stroke-width="1" stroke-opacity="1" font-family="Ubuntu" font-style="normal"/>
  <g stroke="#000000" font-size="45.8333" font-weight="400" stroke-linejoin="bevel" fill="none" stroke-linecap="square" transform="matrix(0.997185,0,0,0.997185,0,0)" stroke-width="1" stroke-opacity="1" font-family="Ubuntu" font-style="normal"/>
  <g stroke="none" font-size="45.8333" fill-opacity="0" font-weight="400" fill="#ffffff" transform="matrix(0.997185,0,0,0.997185,0,0)" font-family="Ubuntu" font-style="normal">
   <path vector-effect="none" d="M-2,-2 L286,-2 L286,321 L-2,321 L-2,-2" fill-rule="evenodd"/>
  </g>
  <g stroke="#000000" font-size="45.8333" font-weight="400" stroke-linejoin="bevel" fill="none" stroke-linecap="square" transform="matrix(0.997185,0,0,0.997185,0,0)" stroke-width="1" stroke-opacity="1" font-family="Ubuntu" font-style="normal"/>
  <g stroke="#000000" font-size="45.8333" font-weight="400" stroke-linejoin="bevel" fill="none" stroke-linecap="square" transform="matrix(11.7778,0,0,11.7778,0,0)" stroke-width="1" stroke-opacity="1" font-family="Ubuntu" font-style="normal"/>
  <g stroke="#000000" font-size="45.8333" font-weight="400" stroke-linejoin="bevel" fill="none" stroke-linecap="square" transform="matrix(11.7778,0,0,11.7778,0,0)" stroke-width="1" stroke-opacity="1" font-family="Ubuntu" font-style="normal"/>
  <g stroke="#000000" font-size="45.8333" font-weight="400" stroke-linejoin="bevel" fill="none" stroke-linecap="square" transform="matrix(11.7778,0,0,11.7778,0,0)" stroke-width="1" stroke-opacity="1" font-family="Ubuntu" font-style="normal"/>
  <g stroke="#000000" font-size="45.8333" font-weight="400" stroke-linejoin="bevel" fill="none" stroke-linecap="square" transform="matrix(11.7778,0,0,11.7778,0,0)" stroke-width="1" stroke-opacity="1" font-family="Ubuntu" font-style="normal"/>
  <g stroke="#000000" font-size="45.8333" font-weight="400" stroke-linejoin="bevel" fill="none" stroke-linecap="square" transform="matrix(11.7778,0,0,11.7778,-19.2211,0)" stroke-width="1" stroke-opacity="1" font-family="Ubuntu" font-style="normal"/>
  <g stroke="#000000" font-size="45.8333" font-weight="400" stroke-linejoin="bevel" fill="none" stroke-linecap="square" transform="matrix(0.997185,0,0,0.997185,-19.2211,0)" stroke-width="1" stroke-opacity="1" font-family="Ubuntu" font-style="normal"/>
  <g stroke="#000000" font-size="45.8333" font-weight="400" stroke-linejoin="bevel" fill="none" stroke-linecap="square" transform="matrix(11.7778,0,0,11.7778,-19.2211,0)" stroke-width="1" stroke-opacity="1" font-family="Ubuntu" font-style="normal"/>
  <g stroke="none" font-size="45.8333" font-weight="400" fill="none" transform="matrix(21.4073,0,0,21.4073,-19.2211,0)" font-family="Ubuntu" font-style="normal">
   <rect y="0" width="15" x="0" height="15"/>
  </g>
  <g stroke="none" font-size="45.8333" fill-opacity="1" font-weight="400" fill="#000000" transform="matrix(21.4073,0,0,21.4073,23.5934,42.8145)" font-family="Ubuntu" font-style="normal">
   <path vector-effect="none" d="M5.5,-0.0176 C3.7134,-0.0176 1.6289,1.0742 1.6289,3.8535 C1.6289,5.7393 4.6067,9.9082 5.5,11 C6.2941,9.9082 9.371,5.8386 9.371,3.8534 C9.371,1.0742 7.2866,-0.0176 5.5,-0.0176 " fill-rule="nonzero"/>
  </g>
  <g stroke="#000000" font-size="45.8333" font-weight="400" stroke-linejoin="bevel" fill="none" stroke-linecap="square" transform="matrix(11.7778,0,0,11.7778,-19.2211,0)" stroke-width="1" stroke-opacity="1" font-family="Ubuntu" font-style="normal"/>
  <g stroke="#000000" font-size="45.8333" font-weight="400" stroke-linejoin="bevel" fill="none" stroke-linecap="square" transform="matrix(0.997185,0,0,0.997185,-19.2211,0)" stroke-width="1" stroke-opacity="1" font-family="Ubuntu" font-style="normal"/>
  <g stroke="#000000" font-size="45.8333" font-weight="400" stroke-linejoin="bevel" fill="none" stroke-linecap="square" transform="matrix(11.7778,0,0,11.7778,-19.2211,0)" stroke-width="1" stroke-opacity="1" font-family="Ubuntu" font-style="normal"/>
  <g stroke="#000000" font-size="45.8333" font-weight="400" stroke-linejoin="bevel" fill="none" stroke-linecap="square" transform="matrix(11.7778,0,0,11.7778,-19.2211,0)" stroke-width="1" stroke-opacity="1" font-family="Ubuntu" font-style="normal"/>
  <g stroke="#000000" font-size="45.8333" font-weight="400" stroke-linejoin="bevel" fill="none" stroke-linecap="square" transform="matrix(11.7778,0,0,11.7778,79.0051,56.9695)" stroke-width="1" stroke-opacity="1" font-family="Ubuntu" font-style="normal"/>
  <g stroke-miterlimit="2" stroke="#000000" font-size="45.8333" fill-opacity="1" font-weight="400" stroke-linejoin="miter" fill="#ffffff" stroke-linecap="square" transform="matrix(0.997185,0,0,0.997185,79.0051,56.9695)" stroke-width="3.54331" stroke-opacity="0" font-family="Ubuntu" font-style="normal">
   <path vector-effect="none" d="M125.008,64.5911 L125.003,65.426 L124.988,66.2582 L124.963,67.0879 L124.927,67.915 L124.882,68.7393 L124.826,69.5608 L124.761,70.3794 L124.686,71.1952 L124.601,72.008 L124.506,72.8177 L124.402,73.6243 L124.288,74.4277 L124.165,75.2279 L124.032,76.0248 L123.89,76.8184 L123.738,77.6085 L123.578,78.3951 L123.408,79.1782 L123.229,79.9577 L123.041,80.7335 L122.843,81.5055 L122.637,82.2737 L122.422,83.0381 L122.198,83.7985 L121.966,84.555 L121.724,85.3074 L121.474,86.0556 L121.216,86.7997 L120.948,87.5395 L120.673,88.2751 L120.389,89.0062 L120.096,89.7329 L119.796,90.4551 L119.487,91.1727 L119.17,91.8857 L118.845,92.594 L118.512,93.2976 L118.17,93.9963 L117.821,94.6902 L117.464,95.3791 L117.1,96.063 L116.727,96.7418 L116.347,97.4155 L115.959,98.084 L115.564,98.7472 L115.161,99.4051 L114.751,100.058 L114.334,100.705 L113.909,101.346 L113.477,101.982 L113.037,102.612 L112.591,103.237 L112.138,103.856 L111.677,104.469 L111.21,105.076 L110.735,105.677 L110.254,106.272 L109.767,106.861 L109.272,107.444 L108.771,108.021 L108.263,108.591 L107.749,109.155 L107.228,109.713 L106.701,110.264 L106.168,110.809 L105.628,111.347 L105.083,111.878 L104.531,112.403 L103.973,112.921 L103.409,113.432 L102.839,113.936 L102.263,114.433 L101.681,114.923 L101.093,115.406 L100.5,115.882 L99.9014,116.35 L99.297,116.812 L98.6871,117.266 L98.0717,117.712 L97.4509,118.151 L96.8247,118.583 L96.1933,119.006 L95.5567,119.423 L94.9149,119.831 L94.268,120.232 L93.6161,120.625 L92.9592,121.01 L92.2974,121.386 L91.6307,121.755 L90.9593,122.116 L90.2831,122.469 L89.6023,122.813 L88.9169,123.149 L88.2269,123.476 L87.5325,123.796 L86.8336,124.106 L86.1304,124.408 L85.4229,124.702 L84.7111,124.987 L83.9952,125.263 L83.2752,125.53 L82.5511,125.788 L81.823,126.038 L81.091,126.278 L80.3551,126.51 L79.6155,126.732 L78.872,126.945 L78.1249,127.149 L77.3742,127.343 L76.6199,127.528 L75.8622,127.704 L75.1009,127.87 L74.3364,128.027 L73.5685,128.173 L72.7973,128.311 L72.0229,128.438 L71.2455,128.556 L70.4649,128.663 L69.6814,128.761 L68.8949,128.849 L68.1055,128.926 L67.3133,128.994 L66.5183,129.051 L65.7206,129.098 L64.9203,129.135 L64.1174,129.161 L63.312,129.177 L62.5042,129.182 L61.6963,129.177 L60.8909,129.161 L60.088,129.135 L59.2877,129.098 L58.49,129.051 L57.6951,128.994 L56.9029,128.926 L56.1135,128.849 L55.327,128.761 L54.5434,128.663 L53.7629,128.556 L52.9854,128.438 L52.2111,128.311 L51.4399,128.173 L50.672,128.027 L49.9074,127.87 L49.1462,127.704 L48.3884,127.528 L47.6341,127.343 L46.8834,127.149 L46.1363,126.945 L45.3929,126.732 L44.6532,126.51 L43.9173,126.278 L43.1853,126.038 L42.4573,125.788 L41.7332,125.53 L41.0131,125.263 L40.2972,124.987 L39.5855,124.702 L38.878,124.408 L38.1747,124.106 L37.4759,123.796 L36.7814,123.476 L36.0915,123.149 L35.406,122.813 L34.7252,122.469 L34.0491,122.116 L33.3776,121.755 L32.711,121.386 L32.0492,121.01 L31.3923,120.625 L30.7404,120.232 L30.0935,119.831 L29.4517,119.423 L28.8151,119.006 L28.1836,118.583 L27.5575,118.151 L26.9367,117.712 L26.3213,117.266 L25.7113,116.812 L25.1069,116.35 L24.5081,115.882 L23.9149,115.406 L23.3274,114.923 L22.7457,114.433 L22.1698,113.936 L21.5998,113.432 L21.0358,112.921 L20.4778,112.403 L19.9258,111.878 L19.38,111.347 L18.8404,110.809 L18.307,110.264 L17.78,109.713 L17.2594,109.155 L16.7452,108.591 L16.2375,108.021 L15.7363,107.444 L15.2418,106.861 L14.754,106.272 L14.2729,105.677 L13.7987,105.076 L13.3313,104.469 L12.8708,103.856 L12.4174,103.237 L11.971,102.612 L11.5317,101.982 L11.0996,101.346 L10.6747,100.705 L10.2572,100.058 L9.84698,99.4051 L9.44422,98.7472 L9.04894,98.084 L8.66121,97.4155 L8.28109,96.7418 L7.90864,96.063 L7.54392,95.3791 L7.18699,94.6902 L6.83792,93.9963 L6.49677,93.2976 L6.16359,92.594 L5.83845,91.8857 L5.52142,91.1727 L5.21254,90.4551 L4.91189,89.7329 L4.61952,89.0062 L4.3355,88.2751 L4.05988,87.5395 L3.79274,86.7997 L3.53412,86.0556 L3.2841,85.3074 L3.04272,84.555 L2.81006,83.7985 L2.58618,83.0381 L2.37113,82.2737 L2.16499,81.5055 L1.9678,80.7335 L1.77963,79.9577 L1.60054,79.1782 L1.4306,78.3951 L1.26986,77.6085 L1.11839,76.8184 L0.976248,76.0248 L0.843493,75.2279 L0.720189,74.4277 L0.606396,73.6243 L0.502176,72.8177 L0.407591,72.008 L0.322702,71.1952 L0.24757,70.3794 L0.182256,69.5608 L0.126823,68.7393 L0.08133,67.915 L0.0458402,67.0879 L0.0204143,66.2582 L0.00511381,65.426 L0,64.5911 L0.00511381,63.7563 L0.0204143,62.924 L0.0458402,62.0943 L0.08133,61.2673 L0.126823,60.443 L0.182256,59.6215 L0.24757,58.8028 L0.322702,57.9871 L0.407591,57.1743 L0.502176,56.3646 L0.606396,55.558 L0.720189,54.7545 L0.843493,53.9543 L0.976248,53.1574 L1.11839,52.3639 L1.26986,51.5738 L1.4306,50.7871 L1.60054,50.004 L1.77963,49.2246 L1.9678,48.4488 L2.16499,47.6768 L2.37113,46.9085 L2.58618,46.1441 L2.81006,45.3837 L3.04272,44.6273 L3.2841,43.8749 L3.53412,43.1266 L3.79274,42.3825 L4.05988,41.6427 L4.3355,40.9072 L4.61952,40.176 L4.91189,39.4493 L5.21254,38.7271 L5.52142,38.0095 L5.83845,37.2965 L6.16359,36.5882 L6.49677,35.8846 L6.83792,35.1859 L7.18699,34.4921 L7.54392,33.8032 L7.90864,33.1193 L8.28109,32.4404 L8.66121,31.7668 L9.04894,31.0983 L9.44422,30.4351 L9.84698,29.7772 L10.2572,29.1247 L10.6747,28.4776 L11.0996,27.8361 L11.5317,27.2001 L11.971,26.5698 L12.4174,25.9452 L12.8708,25.3264 L13.3313,24.7134 L13.7987,24.1063 L14.2729,23.5052 L14.754,22.9101 L15.2418,22.321 L15.7363,21.7382 L16.2375,21.1615 L16.7452,20.5911 L17.2594,20.0271 L17.78,19.4695 L18.307,18.9183 L18.8404,18.3737 L19.38,17.8356 L19.9258,17.3043 L20.4778,16.7796 L21.0358,16.2617 L21.5998,15.7507 L22.1698,15.2466 L22.7457,14.7495 L23.3274,14.2594 L23.9149,13.7764 L24.5081,13.3006 L25.1069,12.832 L25.7113,12.3707 L26.3213,11.9167 L26.9367,11.4702 L27.5575,11.0311 L28.1836,10.5997 L28.8151,10.1758 L29.4517,9.75955 L30.0935,9.35107 L30.7404,8.9504 L31.3923,8.55758 L32.0492,8.1727 L32.711,7.7958 L33.3776,7.42696 L34.0491,7.06623 L34.7252,6.71369 L35.406,6.36939 L36.0915,6.03339 L36.7814,5.70577 L37.4759,5.38658 L38.1747,5.07589 L38.878,4.77376 L39.5855,4.48026 L40.2972,4.19544 L41.0131,3.91937 L41.7332,3.65212 L42.4573,3.39375 L43.1853,3.14432 L43.9173,2.90389 L44.6532,2.67253 L45.3929,2.4503 L46.1363,2.23727 L46.8834,2.0335 L47.6341,1.83905 L48.3884,1.65398 L49.1462,1.47837 L49.9074,1.31226 L50.672,1.15573 L51.4399,1.00884 L52.2111,0.871656 L52.9854,0.744235 L53.7629,0.626643 L54.5434,0.518944 L55.327,0.4212 L56.1135,0.333477 L56.9029,0.255836 L57.6951,0.188342 L58.49,0.131057 L59.2877,0.0840456 L60.088,0.0473708 L60.8909,0.0210959 L61.6963,0.00528455 L62.5042,0 L63.312,0.00528455 L64.1174,0.0210959 L64.9203,0.0473708 L65.7206,0.0840456 L66.5183,0.131057 L67.3133,0.188342 L68.1055,0.255836 L68.8949,0.333477 L69.6814,0.4212 L70.4649,0.518944 L71.2455,0.626643 L72.0229,0.744235 L72.7973,0.871656 L73.5685,1.00884 L74.3364,1.15573 L75.1009,1.31226 L75.8622,1.47837 L76.6199,1.65398 L77.3742,1.83905 L78.1249,2.0335 L78.872,2.23727 L79.6155,2.4503 L80.3551,2.67253 L81.091,2.90389 L81.823,3.14432 L82.5511,3.39375 L83.2752,3.65212 L83.9952,3.91937 L84.7111,4.19544 L85.4229,4.48026 L86.1304,4.77376 L86.8336,5.07589 L87.5325,5.38658 L88.2269,5.70577 L88.9169,6.03339 L89.6023,6.36939 L90.2831,6.71369 L90.9593,7.06623 L91.6307,7.42696 L92.2974,7.7958 L92.9592,8.1727 L93.6161,8.55758 L94.268,8.9504 L94.9149,9.35107 L95.5567,9.75955 L96.1933,10.1758 L96.8247,10.5997 L97.4509,11.0311 L98.0717,11.4702 L98.6871,11.9167 L99.297,12.3707 L99.9014,12.832 L100.5,13.3006 L101.093,13.7764 L101.681,14.2594 L102.263,14.7495 L102.839,15.2466 L103.409,15.7507 L103.973,16.2617 L104.531,16.7796 L105.083,17.3043 L105.628,17.8356 L106.168,18.3737 L106.701,18.9183 L107.228,19.4695 L107.749,20.0271 L108.263,20.5911 L108.771,21.1615 L109.272,21.7382 L109.767,22.321 L110.254,22.9101 L110.735,23.5052 L111.21,24.1063 L111.677,24.7134 L112.138,25.3264 L112.591,25.9452 L113.037,26.5698 L113.477,27.2001 L113.909,27.8361 L114.334,28.4776 L114.751,29.1247 L115.161,29.7772 L115.564,30.4351 L115.959,31.0983 L116.347,31.7668 L116.727,32.4404 L117.1,33.1193 L117.464,33.8032 L117.821,34.4921 L118.17,35.1859 L118.512,35.8846 L118.845,36.5882 L119.17,37.2965 L119.487,38.0095 L119.796,38.7271 L120.096,39.4493 L120.389,40.176 L120.673,40.9072 L120.948,41.6427 L121.216,42.3825 L121.474,43.1266 L121.724,43.8749 L121.966,44.6273 L122.198,45.3837 L122.422,46.1441 L122.637,46.9085 L122.843,47.6768 L123.041,48.4488 L123.229,49.2246 L123.408,50.004 L123.578,50.7871 L123.738,51.5738 L123.89,52.3639 L124.032,53.1574 L124.165,53.9543 L124.288,54.7545 L124.402,55.558 L124.506,56.3646 L124.601,57.1743 L124.686,57.9871 L124.761,58.8028 L124.826,59.6215 L124.882,60.443 L124.927,61.2673 L124.963,62.0943 L124.988,62.924 L125.003,63.7563 L125.008,64.5911" fill-rule="evenodd"/>
  </g>
  <g stroke="#000000" font-size="45.8333" font-weight="400" stroke-linejoin="bevel" fill="none" stroke-linecap="square" transform="matrix(11.7778,0,0,11.7778,79.0051,56.9695)" stroke-width="1" stroke-opacity="1" font-family="Ubuntu" font-style="normal"/>
  <g stroke="#000000" font-size="45.8333" font-weight="400" stroke-linejoin="bevel" fill="none" stroke-linecap="square" transform="matrix(11.7778,0,0,11.7778,79.0051,56.9695)" stroke-width="1" stroke-opacity="1" font-family="Ubuntu" font-style="normal"/>
  <g stroke="#000000" font-size="45.8333" font-weight="400" stroke-linejoin="bevel" fill="none" stroke-linecap="square" transform="matrix(11.7778,0,0,11.7778,99.8131,53.8251)" stroke-width="1" stroke-opacity="1" font-family="Ubuntu" font-style="normal"/>
  <g stroke="#000000" font-size="45.8333" font-weight="400" stroke-linejoin="bevel" fill="none" stroke-linecap="square" transform="matrix(0.997185,0,0,0.997185,99.8131,53.8251)" stroke-width="1" stroke-opacity="1" font-family="Ubuntu" font-style="normal"/>
  <g stroke="#000000" font-size="45.8333" font-weight="400" stroke-linejoin="bevel" fill="none" stroke-linecap="square" transform="matrix(0.319099,0,0,0.319099,113.732,152.041)" stroke-width="1" stroke-opacity="1" font-family="Ubuntu" font-style="normal"/>
  <g stroke="none" font-size="45.8333" fill-opacity="1" font-weight="400" fill="#000000" transform="matrix(0.997185,0,0,0.997185,113.732,152.041)" font-family="Ubuntu" font-style="normal">
   <path vector-effect="none" d="M51.5469,-15.7656 C51.5469,-10.4948 49.487,-6.41406 45.3672,-3.52344 C41.2474,-0.632813 35.4479,0.8125 27.9688,0.8125 C14.0521,0.8125 5.98438,-4.02604 3.76563,-13.7031 L11.2656,-15.2031 C12.1302,-11.7656 13.9688,-9.24479 16.7813,-7.64063 C19.5938,-6.03646 23.4167,-5.23438 28.25,-5.23438 C33.25,-5.23438 37.1068,-6.09115 39.8203,-7.80469 C42.5339,-9.51823 43.8906,-12.0365 43.8906,-15.3594 C43.8906,-17.224 43.4661,-18.737 42.6172,-19.8984 C41.7682,-21.0599 40.5729,-22.0182 39.0313,-22.7734 C37.4896,-23.5286 35.651,-24.1641 33.5156,-24.6797 C31.3802,-25.1953 29.0156,-25.75 26.4219,-26.3438 C21.9115,-27.3438 18.487,-28.3438 16.1484,-29.3438 C13.8099,-30.3438 11.9661,-31.4583 10.6172,-32.6875 C9.26823,-33.9167 8.23438,-35.3542 7.51563,-37 C6.79688,-38.6458 6.4375,-40.5365 6.4375,-42.6719 C6.4375,-47.5677 8.3099,-51.3385 12.0547,-53.9844 C15.7995,-56.6302 21.1563,-57.9531 28.125,-57.9531 C34.6146,-57.9531 39.5729,-56.9609 43,-54.9766 C46.4271,-52.9922 48.8333,-49.6094 50.2188,-44.8281 L42.5938,-43.4844 C41.7604,-46.5156 40.1667,-48.7135 37.8125,-50.0781 C35.4583,-51.4427 32.2031,-52.125 28.0469,-52.125 C23.4844,-52.125 20,-51.3672 17.5938,-49.8516 C15.1875,-48.3359 13.9844,-46.0781 13.9844,-43.0781 C13.9844,-41.3281 14.4505,-39.8776 15.3828,-38.7266 C16.3151,-37.5755 17.6589,-36.6016 19.4141,-35.8047 C21.1693,-35.0078 24.6667,-34.0313 29.9063,-32.875 C31.6667,-32.4688 33.4167,-32.0547 35.1563,-31.6328 C36.8958,-31.2109 38.5625,-30.7109 40.1563,-30.1328 C41.75,-29.5547 43.2448,-28.8724 44.6406,-28.0859 C46.0365,-27.2995 47.2474,-26.3385 48.2734,-25.2031 C49.2995,-24.0677 50.1016,-22.7318 50.6797,-21.1953 C51.2578,-19.6589 51.5469,-17.849 51.5469,-15.7656 " fill-rule="nonzero"/>
  </g>
  <g stroke="#000000" font-size="45.8333" font-weight="400" stroke-linejoin="bevel" fill="none" stroke-linecap="square" transform="matrix(0.319099,0,0,0.319099,113.732,152.041)" stroke-width="1" stroke-opacity="1" font-family="Ubuntu" font-style="normal"/>
  <g stroke="#000000" font-size="45.8333" font-weight="400" stroke-linejoin="bevel" fill="none" stroke-linecap="square" transform="matrix(0.997185,0,0,0.997185,99.8131,53.8251)" stroke-width="1" stroke-opacity="1" font-family="Ubuntu" font-style="normal"/>
  <g stroke="#000000" font-size="45.8333" font-weight="400" stroke-linejoin="bevel" fill="none" stroke-linecap="square" transform="matrix(0.997185,0,0,0.997185,99.8131,53.8251)" stroke-width="1" stroke-opacity="1" font-family="Ubuntu" font-style="normal"/>
  <g stroke="#000000" font-size="45.8333" font-weight="400" stroke-linejoin="bevel" fill="none" stroke-linecap="square" transform="matrix(11.7778,0,0,11.7778,99.8131,53.8251)" stroke-width="1" stroke-opacity="1" font-family="Ubuntu" font-style="normal"/>
  <g stroke="#000000" font-size="45.8333" font-weight="400" stroke-linejoin="bevel" fill="none" stroke-linecap="square" transform="matrix(11.7778,0,0,11.7778,99.8131,53.8251)" stroke-width="1" stroke-opacity="1" font-family="Ubuntu" font-style="normal"/>
  <g stroke="#000000" font-size="45.8333" font-weight="400" stroke-linejoin="bevel" fill="none" stroke-linecap="square" transform="matrix(1,0,0,1,0,0)" stroke-width="1" stroke-opacity="1" font-family="Ubuntu" font-style="normal"/>
 </g>
 <metadata>
  <rdf:RDF xmlns:rdf="http://www.w3.org/1999/02/22-rdf-syntax-ns#" xmlns:dc="http://purl.org/dc/elements/1.1/" xmlns:rdfs="http://www.w3.org/2000/01/rdf-schema#">
   <rdf:Description dc:format="image/svg+xml" dc:title="" dc:date="2021-10-28T14:07:40" dc:identifier="" dc:description="">
    <dc:creator>
     <rdf:Bag>
      <rdf:li>Iddy Chazua</rdf:li>
     </rdf:Bag>
    </dc:creator>
    <dc:publisher>
     <rdf:Bag>
      <rdf:li>QGIS 3.26.0-Buenos Aires</rdf:li>
     </rdf:Bag>
    </dc:publisher>
    <dc:subject>
     <rdf:Bag/>
    </dc:subject>
   </rdf:Description>
   <cc:Work rdf:about="">
    <dc:format>image/svg+xml</dc:format>
    <dc:title></dc:title>
    <dc:date>2021-10-28T14:07:40</dc:date>
    <dc:identifier></dc:identifier>
    <dc:description></dc:description>
    <dc:creator>
     <cc:Agent>
      <dc:title>Iddy Chazua</dc:title>
     </cc:Agent>
    </dc:creator>
    <dc:publisher>
     <cc:Agent>
      <dc:title>QGIS 3.26.0-Buenos Aires</dc:title>
     </cc:Agent>
    </dc:publisher>
   </cc:Work>
  </rdf:RDF>
 </metadata>
</svg>
