<?xml version='1.0' encoding='UTF-8' standalone='no'?>
<svg height="39.9627mm" xmlns:xlink="http://www.w3.org/1999/xlink" width="39.9627mm" baseProfile="tiny" xmlns="http://www.w3.org/2000/svg" version="1.2" xmlns:cc="http://creativecommons.org/ns#" viewBox="0 0 472 472">
 <defs/>
 <g stroke-width="1" stroke-linecap="square" fill-rule="evenodd" stroke="black" fill="none" stroke-linejoin="bevel">
  <g stroke-width="1" transform="matrix(1,0,0,1,0,0)" font-weight="400" stroke-opacity="1" stroke-linecap="square" stroke="#000000" fill="none" stroke-linejoin="bevel" font-family="Ubuntu" font-style="normal" font-size="45.8333"/>
  <g stroke-width="1" transform="matrix(1,0,0,1,0,0)" font-weight="400" stroke-opacity="1" stroke-linecap="square" stroke="#000000" fill="none" stroke-linejoin="bevel" font-family="Ubuntu" font-style="normal" font-size="45.8333"/>
  <g stroke-width="1" transform="matrix(11.8,0,0,11.8,0,0)" font-weight="400" stroke-opacity="1" stroke-linecap="square" stroke="#000000" fill="none" stroke-linejoin="bevel" font-family="Ubuntu" font-style="normal" font-size="45.8333"/>
  <g stroke-width="1" transform="matrix(0.999067,0,0,0.999067,0,0)" font-weight="400" stroke-opacity="1" stroke-linecap="square" stroke="#000000" fill="none" stroke-linejoin="bevel" font-family="Ubuntu" font-style="normal" font-size="45.8333"/>
  <g transform="matrix(0.999067,0,0,0.999067,0,0)" font-weight="400" fill-opacity="0" stroke="none" fill="#ffffff" font-family="Ubuntu" font-style="normal" font-size="45.8333">
   <path fill-rule="evenodd" d="M-2,-2 L475,-2 L475,475 L-2,475 L-2,-2" vector-effect="none"/>
  </g>
  <g stroke-width="1" transform="matrix(0.999067,0,0,0.999067,0,0)" font-weight="400" stroke-opacity="1" stroke-linecap="square" stroke="#000000" fill="none" stroke-linejoin="bevel" font-family="Ubuntu" font-style="normal" font-size="45.8333"/>
  <g stroke-width="1" transform="matrix(11.8,0,0,11.8,0,0)" font-weight="400" stroke-opacity="1" stroke-linecap="square" stroke="#000000" fill="none" stroke-linejoin="bevel" font-family="Ubuntu" font-style="normal" font-size="45.8333"/>
  <g stroke-width="1" transform="matrix(11.8,0,0,11.8,0,0)" font-weight="400" stroke-opacity="1" stroke-linecap="square" stroke="#000000" fill="none" stroke-linejoin="bevel" font-family="Ubuntu" font-style="normal" font-size="45.8333"/>
  <g stroke-width="1" transform="matrix(11.8,0,0,11.8,0,0)" font-weight="400" stroke-opacity="1" stroke-linecap="square" stroke="#000000" fill="none" stroke-linejoin="bevel" font-family="Ubuntu" font-style="normal" font-size="45.8333"/>
  <g stroke-width="1" transform="matrix(11.8,0,0,11.8,0,0)" font-weight="400" stroke-opacity="1" stroke-linecap="square" stroke="#000000" fill="none" stroke-linejoin="bevel" font-family="Ubuntu" font-style="normal" font-size="45.8333"/>
  <g stroke-width="1" transform="matrix(11.8,0,0,11.8,13.172,11.554)" font-weight="400" stroke-opacity="1" stroke-linecap="square" stroke="#000000" fill="none" stroke-linejoin="bevel" font-family="Ubuntu" font-style="normal" font-size="45.8333"/>
  <g stroke-width="3.54331" stroke-miterlimit="2" transform="matrix(0.999067,0,0,0.999067,13.172,11.554)" font-weight="400" fill-opacity="0" stroke-opacity="1" stroke-linecap="square" stroke="#000000" fill="#ffffff" stroke-linejoin="miter" font-family="Ubuntu" font-style="normal" font-size="45.8333">
   <path fill-rule="evenodd" d="M446.072,224.656 L446.068,226.109 L446.054,227.559 L446.031,229.008 L445.999,230.454 L445.959,231.898 L445.909,233.34 L445.85,234.779 L445.782,236.216 L445.705,237.651 L445.62,239.083 L445.525,240.513 L445.422,241.941 L445.31,243.366 L445.189,244.788 L445.059,246.208 L444.921,247.625 L444.774,249.04 L444.618,250.452 L444.453,251.862 L444.28,253.269 L444.099,254.673 L443.908,256.074 L443.71,257.473 L443.502,258.868 L443.287,260.262 L443.062,261.652 L442.83,263.039 L442.589,264.423 L442.339,265.805 L442.081,267.183 L441.815,268.559 L441.541,269.932 L441.258,271.301 L440.967,272.668 L440.668,274.031 L440.361,275.391 L440.046,276.748 L439.722,278.102 L439.39,279.453 L439.051,280.801 L438.703,282.145 L438.347,283.486 L437.983,284.824 L437.611,286.158 L437.232,287.489 L436.844,288.816 L436.448,290.141 L436.045,291.461 L435.634,292.779 L435.215,294.092 L434.788,295.403 L434.354,296.709 L433.911,298.012 L433.461,299.312 L433.004,300.608 L432.539,301.9 L432.066,303.188 L431.585,304.473 L431.097,305.754 L430.602,307.031 L430.099,308.305 L429.588,309.574 L429.07,310.84 L428.545,312.102 L428.012,313.36 L427.472,314.614 L426.925,315.864 L426.37,317.11 L425.808,318.352 L425.239,319.59 L424.662,320.823 L424.078,322.053 L423.488,323.279 L422.89,324.5 L422.284,325.717 L421.672,326.93 L421.053,328.139 L420.427,329.344 L419.793,330.544 L419.153,331.74 L418.506,332.931 L417.852,334.119 L417.191,335.301 L416.523,336.48 L415.848,337.653 L415.166,338.823 L414.478,339.988 L413.783,341.148 L413.081,342.303 L412.372,343.455 L411.657,344.601 L410.935,345.743 L410.206,346.88 L409.471,348.012 L408.729,349.14 L407.981,350.263 L407.226,351.381 L406.465,352.494 L405.697,353.602 L404.923,354.706 L404.143,355.805 L403.356,356.898 L402.563,357.987 L401.763,359.071 L400.957,360.149 L400.145,361.223 L399.326,362.292 L398.502,363.355 L397.671,364.413 L396.834,365.467 L395.991,366.515 L395.142,367.558 L394.286,368.595 L393.425,369.627 L392.558,370.654 L391.684,371.676 L390.805,372.692 L389.92,373.703 L389.029,374.709 L388.132,375.709 L387.229,376.704 L386.32,377.693 L385.405,378.677 L384.485,379.655 L383.559,380.627 L382.627,381.594 L381.69,382.556 L380.747,383.511 L379.798,384.461 L378.843,385.405 L377.883,386.344 L376.918,387.277 L375.947,388.204 L374.97,389.125 L373.988,390.04 L373.001,390.95 L372.008,391.853 L371.009,392.751 L370.006,393.643 L368.997,394.528 L367.982,395.408 L366.963,396.282 L365.938,397.149 L364.908,398.011 L363.873,398.866 L362.832,399.715 L361.786,400.559 L360.736,401.395 L359.68,402.226 L358.619,403.05 L357.553,403.868 L356.482,404.68 L355.406,405.486 L354.325,406.285 L353.24,407.077 L352.149,407.864 L351.053,408.643 L349.953,409.417 L348.848,410.183 L347.738,410.944 L346.623,411.697 L345.503,412.444 L344.379,413.185 L343.25,413.919 L342.117,414.646 L340.979,415.366 L339.836,416.08 L338.688,416.787 L337.537,417.487 L336.38,418.181 L335.219,418.867 L334.054,419.547 L332.884,420.22 L331.71,420.886 L330.531,421.545 L329.348,422.197 L328.161,422.842 L326.97,423.479 L325.774,424.11 L324.574,424.734 L323.369,425.351 L322.161,425.96 L320.948,426.563 L319.732,427.158 L318.511,427.746 L317.286,428.326 L316.057,428.9 L314.824,429.466 L313.587,430.025 L312.346,430.576 L311.101,431.12 L309.852,431.657 L308.599,432.186 L307.343,432.708 L306.082,433.222 L304.818,433.728 L303.55,434.228 L302.278,434.719 L301.003,435.203 L299.723,435.679 L298.441,436.148 L297.154,436.609 L295.864,437.062 L294.57,437.507 L293.273,437.945 L291.972,438.375 L290.668,438.797 L289.36,439.211 L288.049,439.618 L286.734,440.016 L285.416,440.406 L284.095,440.789 L282.77,441.163 L281.442,441.53 L280.111,441.888 L278.776,442.239 L277.439,442.581 L276.098,442.915 L274.753,443.241 L273.406,443.559 L272.056,443.868 L270.702,444.169 L269.345,444.462 L267.986,444.747 L266.623,445.023 L265.257,445.292 L263.889,445.551 L262.517,445.802 L261.143,446.045 L259.765,446.28 L258.385,446.505 L257.002,446.723 L255.617,446.932 L254.228,447.132 L252.837,447.323 L251.443,447.506 L250.046,447.681 L248.647,447.846 L247.245,448.003 L245.84,448.151 L244.433,448.291 L243.023,448.421 L241.611,448.543 L240.197,448.656 L238.779,448.76 L237.36,448.855 L235.938,448.942 L234.514,449.019 L233.087,449.087 L231.658,449.147 L230.226,449.197 L228.793,449.238 L227.357,449.27 L225.919,449.293 L224.479,449.307 L223.036,449.311 L221.594,449.307 L220.153,449.293 L218.715,449.27 L217.279,449.238 L215.846,449.197 L214.415,449.147 L212.985,449.087 L211.559,449.019 L210.134,448.942 L208.712,448.855 L207.293,448.76 L205.876,448.656 L204.461,448.543 L203.049,448.421 L201.639,448.291 L200.232,448.151 L198.827,448.003 L197.425,447.846 L196.026,447.681 L194.63,447.506 L193.236,447.323 L191.844,447.132 L190.456,446.932 L189.07,446.723 L187.687,446.505 L186.307,446.28 L184.929,446.045 L183.555,445.802 L182.184,445.551 L180.815,445.292 L179.449,445.023 L178.087,444.747 L176.727,444.462 L175.37,444.169 L174.017,443.868 L172.666,443.559 L171.319,443.241 L169.975,442.915 L168.634,442.581 L167.296,442.239 L165.961,441.888 L164.63,441.53 L163.302,441.163 L161.977,440.789 L160.656,440.406 L159.338,440.016 L158.023,439.618 L156.712,439.211 L155.404,438.797 L154.1,438.375 L152.799,437.945 L151.502,437.507 L150.208,437.062 L148.918,436.609 L147.632,436.148 L146.349,435.679 L145.07,435.203 L143.794,434.719 L142.522,434.228 L141.254,433.728 L139.99,433.222 L138.73,432.708 L137.473,432.186 L136.22,431.657 L134.972,431.12 L133.727,430.576 L132.486,430.025 L131.249,429.466 L130.016,428.9 L128.787,428.326 L127.562,427.746 L126.341,427.158 L125.124,426.563 L123.911,425.96 L122.703,425.351 L121.499,424.734 L120.299,424.11 L119.103,423.479 L117.911,422.842 L116.724,422.197 L115.541,421.545 L114.362,420.886 L113.188,420.22 L112.018,419.547 L110.853,418.867 L109.692,418.181 L108.536,417.487 L107.384,416.787 L106.236,416.08 L105.094,415.366 L103.955,414.646 L102.822,413.919 L101.693,413.185 L100.569,412.444 L99.4493,411.697 L98.3345,410.944 L97.2245,410.183 L96.1193,409.417 L95.0189,408.643 L93.9233,407.864 L92.8326,407.077 L91.7468,406.285 L90.666,405.486 L89.5901,404.68 L88.5191,403.868 L87.4532,403.05 L86.3923,402.226 L85.3365,401.395 L84.2858,400.559 L83.2402,399.715 L82.1997,398.866 L81.1644,398.011 L80.1344,397.149 L79.1095,396.282 L78.0899,395.408 L77.0756,394.528 L76.0666,393.643 L75.0629,392.751 L74.0646,391.853 L73.0717,390.95 L72.0842,390.04 L71.1021,389.125 L70.1256,388.204 L69.1545,387.277 L68.1889,386.344 L67.229,385.405 L66.2746,384.461 L65.3258,383.511 L64.3826,382.556 L63.4451,381.594 L62.5133,380.627 L61.5873,379.655 L60.667,378.677 L59.7524,377.693 L58.8437,376.704 L57.9407,375.709 L57.0437,374.709 L56.1525,373.703 L55.2673,372.692 L54.3879,371.676 L53.5146,370.654 L52.6472,369.627 L51.7859,368.595 L50.9306,367.558 L50.0814,366.515 L49.2383,365.467 L48.4013,364.413 L47.5705,363.355 L46.7459,362.292 L45.9275,361.223 L45.1153,360.149 L44.3094,359.071 L43.5098,357.987 L42.7165,356.898 L41.9295,355.805 L41.149,354.706 L40.3748,353.602 L39.6071,352.494 L38.8458,351.381 L38.0911,350.263 L37.3428,349.14 L36.6011,348.012 L35.8659,346.88 L35.1374,345.743 L34.4155,344.601 L33.7002,343.455 L32.9916,342.303 L32.2897,341.148 L31.5945,339.988 L30.9061,338.823 L30.2245,337.653 L29.5497,336.48 L28.8818,335.301 L28.2207,334.119 L27.5665,332.931 L26.9193,331.74 L26.279,330.544 L25.6456,329.344 L25.0193,328.139 L24.4,326.93 L23.7878,325.717 L23.1827,324.5 L22.5847,323.279 L21.9938,322.053 L21.4101,320.823 L20.8336,319.59 L20.2643,318.352 L19.7023,317.11 L19.1475,315.864 L18.6001,314.614 L18.06,313.36 L17.5273,312.102 L17.0019,310.84 L16.484,309.574 L15.9735,308.305 L15.4705,307.031 L14.975,305.754 L14.487,304.473 L14.0066,303.188 L13.5338,301.9 L13.0685,300.608 L12.6109,299.312 L12.161,298.012 L11.7188,296.709 L11.2842,295.403 L10.8575,294.092 L10.4385,292.779 L10.0273,291.461 L9.62389,290.141 L9.22837,288.816 L8.84074,287.489 L8.46101,286.158 L8.08923,284.824 L7.72541,283.486 L7.36958,282.145 L7.02177,280.801 L6.68201,279.453 L6.35032,278.102 L6.02674,276.748 L5.71128,275.391 L5.40398,274.031 L5.10487,272.668 L4.81397,271.301 L4.5313,269.932 L4.2569,268.559 L3.9908,267.183 L3.73302,265.805 L3.48358,264.423 L3.24253,263.039 L3.00987,261.652 L2.78564,260.262 L2.56988,258.868 L2.3626,257.473 L2.16383,256.074 L1.9736,254.673 L1.79194,253.269 L1.61887,251.862 L1.45442,250.452 L1.29863,249.04 L1.15151,247.625 L1.0131,246.208 L0.883413,244.788 L0.76249,243.366 L0.650352,241.941 L0.547028,240.513 L0.452546,239.083 L0.366932,237.651 L0.290213,236.216 L0.222418,234.779 L0.163573,233.34 L0.113707,231.898 L0.0728453,230.454 L0.0410165,229.008 L0.0182478,227.559 L0.00456651,226.109 L0,224.656 L0.00456651,223.203 L0.0182478,221.752 L0.0410165,220.303 L0.0728453,218.857 L0.113707,217.413 L0.163573,215.971 L0.222418,214.532 L0.290213,213.095 L0.366932,211.66 L0.452546,210.228 L0.547028,208.798 L0.650352,207.371 L0.76249,205.946 L0.883413,204.523 L1.0131,203.103 L1.15151,201.686 L1.29863,200.271 L1.45442,198.859 L1.61887,197.45 L1.79194,196.043 L1.9736,194.639 L2.16383,193.237 L2.3626,191.839 L2.56988,190.443 L2.78564,189.05 L3.00987,187.66 L3.24253,186.272 L3.48358,184.888 L3.73302,183.506 L3.9908,182.128 L4.2569,180.752 L4.5313,179.38 L4.81397,178.01 L5.10487,176.644 L5.40398,175.28 L5.71128,173.92 L6.02674,172.563 L6.35032,171.209 L6.68201,169.858 L7.02177,168.511 L7.36958,167.166 L7.72541,165.825 L8.08923,164.488 L8.46101,163.153 L8.84074,161.822 L9.22837,160.495 L9.62389,159.171 L10.0273,157.85 L10.4385,156.533 L10.8575,155.219 L11.2842,153.909 L11.7188,152.602 L12.161,151.299 L12.6109,149.999 L13.0685,148.704 L13.5338,147.412 L14.0066,146.123 L14.487,144.838 L14.975,143.557 L15.4705,142.28 L15.9735,141.007 L16.484,139.737 L17.0019,138.471 L17.5273,137.21 L18.06,135.952 L18.6001,134.698 L19.1475,133.448 L19.7023,132.202 L20.2643,130.96 L20.8336,129.722 L21.4101,128.488 L21.9938,127.258 L22.5847,126.033 L23.1827,124.811 L23.7878,123.594 L24.4,122.381 L25.0193,121.172 L25.6456,119.968 L26.279,118.767 L26.9193,117.571 L27.5665,116.38 L28.2207,115.193 L28.8818,114.01 L29.5497,112.832 L30.2245,111.658 L30.9061,110.489 L31.5945,109.324 L32.2897,108.164 L32.9916,107.008 L33.7002,105.857 L34.4155,104.71 L35.1374,103.569 L35.8659,102.431 L36.6011,101.299 L37.3428,100.171 L38.0911,99.0485 L38.8458,97.9305 L39.6071,96.8172 L40.3748,95.7088 L41.149,94.6053 L41.9295,93.5067 L42.7165,92.413 L43.5098,91.3243 L44.3094,90.2406 L45.1153,89.1619 L45.9275,88.0882 L46.7459,87.0197 L47.5705,85.9562 L48.4013,84.8978 L49.2383,83.8446 L50.0814,82.7966 L50.9306,81.7538 L51.7859,80.7162 L52.6472,79.6839 L53.5146,78.6569 L54.3879,77.6352 L55.2673,76.6189 L56.1525,75.6079 L57.0437,74.6024 L57.9407,73.6023 L58.8437,72.6076 L59.7524,71.6184 L60.667,70.6348 L61.5873,69.6566 L62.5133,68.6841 L63.4451,67.7171 L64.3826,66.7558 L65.3258,65.8001 L66.2746,64.8501 L67.229,63.9058 L68.1889,62.9673 L69.1545,62.0345 L70.1256,61.1075 L71.1021,60.1863 L72.0842,59.2709 L73.0717,58.3615 L74.0646,57.4579 L75.0629,56.5603 L76.0666,55.6686 L77.0756,54.7829 L78.0899,53.9032 L79.1095,53.0295 L80.1344,52.1619 L81.1644,51.3004 L82.1997,50.4451 L83.2402,49.5958 L84.2858,48.7528 L85.3365,47.9159 L86.3923,47.0853 L87.4532,46.261 L88.5191,45.4429 L89.5901,44.6311 L90.666,43.8257 L91.7468,43.0267 L92.8326,42.234 L93.9233,41.4478 L95.0189,40.668 L96.1193,39.8947 L97.2245,39.1279 L98.3345,38.3677 L99.4493,37.614 L100.569,36.8669 L101.693,36.1264 L102.822,35.3925 L103.955,34.6654 L105.094,33.9449 L106.236,33.2311 L107.384,32.5242 L108.536,31.8239 L109.692,31.1306 L110.853,30.444 L112.018,29.7643 L113.188,29.0915 L114.362,28.4256 L115.541,27.7667 L116.724,27.1147 L117.911,26.4698 L119.103,25.8318 L120.299,25.201 L121.499,24.5772 L122.703,23.9605 L123.911,23.351 L125.124,22.7486 L126.341,22.1535 L127.562,21.5655 L128.787,20.9849 L130.016,20.4115 L131.249,19.8454 L132.486,19.2866 L133.727,18.7352 L134.972,18.1912 L136.22,17.6546 L137.473,17.1254 L138.73,16.6037 L139.99,16.0895 L141.254,15.5829 L142.522,15.0838 L143.794,14.5922 L145.07,14.1083 L146.349,13.632 L147.632,13.1634 L148.918,12.7025 L150.208,12.2493 L151.502,11.8039 L152.799,11.3662 L154.1,10.9363 L155.404,10.5143 L156.712,10.1001 L158.023,9.69377 L159.338,9.29538 L160.656,8.90493 L161.977,8.52245 L163.302,8.14796 L164.63,7.7815 L165.961,7.42309 L167.296,7.07275 L168.634,6.73053 L169.975,6.39643 L171.319,6.0705 L172.666,5.75275 L174.017,5.44322 L175.37,5.14194 L176.727,4.84892 L178.087,4.5642 L179.449,4.28781 L180.815,4.01978 L182.184,3.76012 L183.555,3.50888 L184.929,3.26607 L186.307,3.03173 L187.687,2.80587 L189.07,2.58854 L190.456,2.37975 L191.844,2.17954 L193.236,1.98793 L194.63,1.80495 L196.026,1.63062 L197.425,1.46499 L198.827,1.30806 L200.232,1.15987 L201.639,1.02045 L203.049,0.889828 L204.461,0.768026 L205.876,0.655075 L207.293,0.551001 L208.712,0.455832 L210.134,0.369596 L211.559,0.292321 L212.985,0.224033 L214.415,0.164761 L215.846,0.114532 L217.279,0.0733742 L218.715,0.0413143 L220.153,0.0183803 L221.594,0.00459967 L223.036,0 L224.479,0.00459967 L225.919,0.0183803 L227.357,0.0413143 L228.793,0.0733742 L230.226,0.114532 L231.658,0.164761 L233.087,0.224033 L234.514,0.292321 L235.938,0.369596 L237.36,0.455832 L238.779,0.551001 L240.197,0.655075 L241.611,0.768026 L243.023,0.889828 L244.433,1.02045 L245.84,1.15987 L247.245,1.30806 L248.647,1.46499 L250.046,1.63062 L251.443,1.80495 L252.837,1.98793 L254.228,2.17954 L255.617,2.37975 L257.002,2.58854 L258.385,2.80587 L259.765,3.03173 L261.143,3.26607 L262.517,3.50888 L263.889,3.76012 L265.257,4.01978 L266.623,4.28781 L267.986,4.5642 L269.345,4.84892 L270.702,5.14194 L272.056,5.44322 L273.406,5.75275 L274.753,6.0705 L276.098,6.39643 L277.439,6.73053 L278.776,7.07275 L280.111,7.42309 L281.442,7.7815 L282.77,8.14796 L284.095,8.52245 L285.416,8.90493 L286.734,9.29538 L288.049,9.69377 L289.36,10.1001 L290.668,10.5143 L291.972,10.9363 L293.273,11.3662 L294.57,11.8039 L295.864,12.2493 L297.154,12.7025 L298.441,13.1634 L299.723,13.632 L301.003,14.1083 L302.278,14.5922 L303.55,15.0838 L304.818,15.5829 L306.082,16.0895 L307.343,16.6037 L308.599,17.1254 L309.852,17.6546 L311.101,18.1912 L312.346,18.7352 L313.587,19.2866 L314.824,19.8454 L316.057,20.4115 L317.286,20.9849 L318.511,21.5655 L319.732,22.1535 L320.948,22.7486 L322.161,23.351 L323.369,23.9605 L324.574,24.5772 L325.774,25.201 L326.97,25.8318 L328.161,26.4698 L329.348,27.1147 L330.531,27.7667 L331.71,28.4256 L332.884,29.0915 L334.054,29.7643 L335.219,30.444 L336.38,31.1306 L337.537,31.8239 L338.688,32.5242 L339.836,33.2311 L340.979,33.9449 L342.117,34.6654 L343.25,35.3925 L344.379,36.1264 L345.503,36.8669 L346.623,37.614 L347.738,38.3677 L348.848,39.1279 L349.953,39.8947 L351.053,40.668 L352.149,41.4478 L353.24,42.234 L354.325,43.0267 L355.406,43.8257 L356.482,44.6311 L357.553,45.4429 L358.619,46.261 L359.68,47.0853 L360.736,47.9159 L361.786,48.7528 L362.832,49.5958 L363.873,50.4451 L364.908,51.3004 L365.938,52.1619 L366.963,53.0295 L367.982,53.9032 L368.997,54.7829 L370.006,55.6686 L371.009,56.5603 L372.008,57.4579 L373.001,58.3615 L373.988,59.2709 L374.97,60.1863 L375.947,61.1075 L376.918,62.0345 L377.883,62.9673 L378.843,63.9058 L379.798,64.8501 L380.747,65.8001 L381.69,66.7558 L382.627,67.7171 L383.559,68.6841 L384.485,69.6566 L385.405,70.6348 L386.32,71.6184 L387.229,72.6076 L388.132,73.6023 L389.029,74.6024 L389.92,75.6079 L390.805,76.6189 L391.684,77.6352 L392.558,78.6569 L393.425,79.6839 L394.286,80.7162 L395.142,81.7538 L395.991,82.7966 L396.834,83.8446 L397.671,84.8978 L398.502,85.9562 L399.326,87.0197 L400.145,88.0882 L400.957,89.1619 L401.763,90.2406 L402.563,91.3243 L403.356,92.413 L404.143,93.5067 L404.923,94.6053 L405.697,95.7088 L406.465,96.8172 L407.226,97.9305 L407.981,99.0485 L408.729,100.171 L409.471,101.299 L410.206,102.431 L410.935,103.569 L411.657,104.71 L412.372,105.857 L413.081,107.008 L413.783,108.164 L414.478,109.324 L415.166,110.489 L415.848,111.658 L416.523,112.832 L417.191,114.01 L417.852,115.193 L418.506,116.38 L419.153,117.571 L419.793,118.767 L420.427,119.968 L421.053,121.172 L421.672,122.381 L422.284,123.594 L422.89,124.811 L423.488,126.033 L424.078,127.258 L424.662,128.488 L425.239,129.722 L425.808,130.96 L426.37,132.202 L426.925,133.448 L427.472,134.698 L428.012,135.952 L428.545,137.21 L429.07,138.471 L429.588,139.737 L430.099,141.007 L430.602,142.28 L431.097,143.557 L431.585,144.838 L432.066,146.123 L432.539,147.412 L433.004,148.704 L433.461,149.999 L433.911,151.299 L434.354,152.602 L434.788,153.909 L435.215,155.219 L435.634,156.533 L436.045,157.85 L436.448,159.171 L436.844,160.495 L437.232,161.822 L437.611,163.153 L437.983,164.488 L438.347,165.825 L438.703,167.166 L439.051,168.511 L439.39,169.858 L439.722,171.209 L440.046,172.563 L440.361,173.92 L440.668,175.28 L440.967,176.644 L441.258,178.01 L441.541,179.38 L441.815,180.752 L442.081,182.128 L442.339,183.506 L442.589,184.888 L442.83,186.272 L443.062,187.66 L443.287,189.05 L443.502,190.443 L443.71,191.839 L443.908,193.237 L444.099,194.639 L444.28,196.043 L444.453,197.45 L444.618,198.859 L444.774,200.271 L444.921,201.686 L445.059,203.103 L445.189,204.523 L445.31,205.946 L445.422,207.371 L445.525,208.798 L445.62,210.228 L445.705,211.66 L445.782,213.095 L445.85,214.532 L445.909,215.971 L445.959,217.413 L445.999,218.857 L446.031,220.303 L446.054,221.752 L446.068,223.203 L446.072,224.656" vector-effect="none"/>
  </g>
  <g stroke-width="1" transform="matrix(11.8,0,0,11.8,13.172,11.554)" font-weight="400" stroke-opacity="1" stroke-linecap="square" stroke="#000000" fill="none" stroke-linejoin="bevel" font-family="Ubuntu" font-style="normal" font-size="45.8333"/>
  <g stroke-width="1" transform="matrix(11.8,0,0,11.8,13.172,11.554)" font-weight="400" stroke-opacity="1" stroke-linecap="square" stroke="#000000" fill="none" stroke-linejoin="bevel" font-family="Ubuntu" font-style="normal" font-size="45.8333"/>
  <g stroke-width="1" transform="matrix(11.8,0,0,11.8,69.1448,84.7087)" font-weight="400" stroke-opacity="1" stroke-linecap="square" stroke="#000000" fill="none" stroke-linejoin="bevel" font-family="Ubuntu" font-style="normal" font-size="45.8333"/>
  <g stroke-width="1" transform="matrix(0.999067,0,0,0.999067,69.1448,84.7087)" font-weight="400" stroke-opacity="1" stroke-linecap="square" stroke="#000000" fill="none" stroke-linejoin="bevel" font-family="Ubuntu" font-style="normal" font-size="45.8333"/>
  <g stroke-width="1" transform="matrix(0.319701,0,0,0.319701,110.471,362.352)" font-weight="400" stroke-opacity="1" stroke-linecap="square" stroke="#000000" fill="none" stroke-linejoin="bevel" font-family="Ubuntu" font-style="normal" font-size="45.8333"/>
  <g transform="matrix(1.87325,0,0,1.87325,110.471,362.352)" font-weight="400" fill-opacity="1" stroke="none" fill="#323232" font-family="Ubuntu" font-style="normal" font-size="45.8333">
   <path fill-rule="nonzero" d="M124.219,-37.9844 C124.219,-25.2969 119.255,-15.4688 109.328,-8.5 C99.401,-1.53125 85.4219,1.95313 67.3906,1.95313 C33.8594,1.95313 14.4219,-9.70313 9.07813,-33.0156 L27.1563,-36.625 C29.2396,-28.3542 33.6667,-22.2813 40.4375,-18.4063 C47.2083,-14.5313 56.4167,-12.5938 68.0625,-12.5938 C80.1146,-12.5938 89.4115,-14.6615 95.9531,-18.7969 C102.495,-22.9323 105.766,-29.0052 105.766,-37.0156 C105.766,-41.5052 104.74,-45.151 102.688,-47.9531 C100.635,-50.7552 97.7552,-53.0677 94.0469,-54.8906 C90.3385,-56.7135 85.9115,-58.2422 80.7656,-59.4766 C75.6198,-60.7109 69.9219,-62.0469 63.6719,-63.4844 C52.7969,-65.8906 44.5443,-68.2969 38.9141,-70.7031 C33.2839,-73.1094 28.8411,-75.7943 25.5859,-78.7578 C22.3307,-81.7214 19.8411,-85.1901 18.1172,-89.1641 C16.3932,-93.138 15.5313,-97.6927 15.5313,-102.828 C15.5313,-114.62 20.0391,-123.706 29.0547,-130.086 C38.0703,-136.466 50.9792,-139.656 67.7813,-139.656 C83.4063,-139.656 95.3516,-137.263 103.617,-132.477 C111.883,-127.69 117.677,-119.536 121,-108.016 L102.641,-104.781 C100.62,-112.073 96.7786,-117.365 91.1172,-120.656 C85.4557,-123.948 77.6094,-125.594 67.5781,-125.594 C56.5781,-125.594 48.1797,-123.771 42.3828,-120.125 C36.5859,-116.479 33.6875,-111.042 33.6875,-103.813 C33.6875,-99.5833 34.8125,-96.0833 37.0625,-93.3125 C39.3125,-90.5417 42.5521,-88.1979 46.7813,-86.2813 C51.0104,-84.3646 59.4427,-82.0052 72.0781,-79.2031 C76.3073,-78.224 80.5208,-77.2292 84.7188,-76.2188 C88.9167,-75.2083 92.9375,-74.0052 96.7813,-72.6094 C100.625,-71.2135 104.221,-69.5703 107.57,-67.6797 C110.919,-65.7891 113.831,-63.4766 116.305,-60.7422 C118.779,-58.0078 120.716,-54.7865 122.117,-51.0781 C123.518,-47.3698 124.219,-43.0052 124.219,-37.9844 " vector-effect="none"/>
  </g>
  <g stroke-width="1" transform="matrix(0.319701,0,0,0.319701,110.471,362.352)" font-weight="400" stroke-opacity="1" stroke-linecap="square" stroke="#000000" fill="none" stroke-linejoin="bevel" font-family="Ubuntu" font-style="normal" font-size="45.8333"/>
  <g stroke-width="1" transform="matrix(0.999067,0,0,0.999067,69.1448,84.7087)" font-weight="400" stroke-opacity="1" stroke-linecap="square" stroke="#000000" fill="none" stroke-linejoin="bevel" font-family="Ubuntu" font-style="normal" font-size="45.8333"/>
  <g stroke-width="1" transform="matrix(0.999067,0,0,0.999067,69.1448,84.7087)" font-weight="400" stroke-opacity="1" stroke-linecap="square" stroke="#000000" fill="none" stroke-linejoin="bevel" font-family="Ubuntu" font-style="normal" font-size="45.8333"/>
  <g stroke-width="1" transform="matrix(11.8,0,0,11.8,69.1448,84.7087)" font-weight="400" stroke-opacity="1" stroke-linecap="square" stroke="#000000" fill="none" stroke-linejoin="bevel" font-family="Ubuntu" font-style="normal" font-size="45.8333"/>
  <g stroke-width="1" transform="matrix(11.8,0,0,11.8,69.1448,84.7087)" font-weight="400" stroke-opacity="1" stroke-linecap="square" stroke="#000000" fill="none" stroke-linejoin="bevel" font-family="Ubuntu" font-style="normal" font-size="45.8333"/>
  <g stroke-width="1" transform="matrix(1,0,0,1,0,0)" font-weight="400" stroke-opacity="1" stroke-linecap="square" stroke="#000000" fill="none" stroke-linejoin="bevel" font-family="Ubuntu" font-style="normal" font-size="45.8333"/>
 </g>
 <metadata>
  <rdf:RDF xmlns:dc="http://purl.org/dc/elements/1.1/" xmlns:rdf="http://www.w3.org/1999/02/22-rdf-syntax-ns#" xmlns:rdfs="http://www.w3.org/2000/01/rdf-schema#">
   <rdf:Description dc:format="image/svg+xml" dc:date="2021-10-28T14:07:40" dc:identifier="" dc:title="" dc:description="">
    <dc:creator>
     <rdf:Bag>
      <rdf:li>Iddy Chazua</rdf:li>
     </rdf:Bag>
    </dc:creator>
    <dc:publisher>
     <rdf:Bag>
      <rdf:li>QGIS 3.26.0-Buenos Aires</rdf:li>
     </rdf:Bag>
    </dc:publisher>
    <dc:subject>
     <rdf:Bag/>
    </dc:subject>
   </rdf:Description>
   <cc:Work rdf:about="">
    <dc:format>image/svg+xml</dc:format>
    <dc:title></dc:title>
    <dc:date>2021-10-28T14:07:40</dc:date>
    <dc:identifier></dc:identifier>
    <dc:description></dc:description>
    <dc:creator>
     <cc:Agent>
      <dc:title>Iddy Chazua</dc:title>
     </cc:Agent>
    </dc:creator>
    <dc:publisher>
     <cc:Agent>
      <dc:title>QGIS 3.26.0-Buenos Aires</dc:title>
     </cc:Agent>
    </dc:publisher>
   </cc:Work>
  </rdf:RDF>
 </metadata>
</svg>
